<svg width="20" height="20" viewBox="0 0 20 20" fill="none" xmlns="http://www.w3.org/2000/svg">
<path d="M5.92676 9.23898C5.83498 9.11916 5.69949 9.04058 5.54991 9.02043C5.40034 9.00028 5.24888 9.0402 5.12867 9.13146C5.05795 9.18723 5.00091 9.25842 4.96189 9.3396L0.0617556 19.1426C-0.00764703 19.2815 -0.0190467 19.4423 0.0300624 19.5897C0.0791714 19.737 0.18477 19.8588 0.323647 19.9283C0.404824 19.9694 0.494569 19.9906 0.585539 19.9903H7.41265C7.522 19.9931 7.62979 19.964 7.72282 19.9064C7.81585 19.8489 7.89009 19.7655 7.93643 19.6664C9.40992 16.6229 8.51673 11.9957 5.92676 9.23898Z" fill="url(#paint0_linear_580_3991)"/>
<path d="M9.52841 0.318096C8.30686 2.19786 7.59495 4.36289 7.46253 6.60078C7.3301 8.83867 7.78172 11.0726 8.77306 13.0833L12.0646 19.6664C12.1133 19.7637 12.188 19.8455 12.2805 19.9027C12.373 19.9599 12.4796 19.9903 12.5884 19.9903H19.4141C19.4911 19.9905 19.5674 19.9755 19.6385 19.9461C19.7097 19.9167 19.7743 19.8736 19.8288 19.8191C19.8832 19.7647 19.9264 19.7001 19.9557 19.6289C19.9851 19.5577 20.0001 19.4815 20 19.4045C20 19.3137 19.9793 19.2241 19.9393 19.1426L10.525 0.31534C10.4803 0.220998 10.4097 0.141281 10.3215 0.0854577C10.2333 0.0296347 10.1311 0 10.0267 0C9.9223 0 9.82006 0.0296347 9.73185 0.0854577C9.64364 0.141281 9.57309 0.220998 9.52841 0.31534V0.318096Z" fill="#2684FF"/>
<defs>
<linearGradient id="paint0_linear_580_3991" x1="8.62424" y1="10.7373" x2="3.44981" y2="19.6995" gradientUnits="userSpaceOnUse">
<stop stop-color="#0052CC"/>
<stop offset="0.92" stop-color="#2684FF"/>
</linearGradient>
</defs>
</svg>
