<svg width="20" height="20" viewBox="0 0 20 20" fill="none" xmlns="http://www.w3.org/2000/svg">
<g clip-path="url(#clip0_580_3885)">
<path d="M18.187 0H1.81305C0.811719 0 0 0.811719 0 1.81305V18.187C0 19.1883 0.811719 20 1.81305 20H18.187C19.1883 20 20 19.1883 20 18.187V1.81305C20 0.811719 19.1883 0 18.187 0Z" fill="#DC395F"/>
<path d="M6.68379 6.29339C7.34863 6.29339 7.90559 5.77229 7.90559 5.08932C7.90559 4.40682 7.34863 3.8858 6.68379 3.8858C6.01895 3.8858 5.46215 4.40682 5.46215 5.08932C5.46215 5.77221 6.01895 6.29339 6.68379 6.29339ZM4.15051 12.7403C4.07871 13.0457 4.0427 13.3756 4.0427 13.6446C4.0427 14.7049 4.61762 15.4087 5.83941 15.4087C6.8527 15.4087 7.67418 14.807 8.26566 13.8354L7.90449 15.2848H9.9166L11.0666 10.6724C11.3541 9.50456 11.9111 8.89839 12.7556 8.89839C13.4204 8.89839 13.8336 9.31183 13.8336 9.99433C13.8336 10.1921 13.8156 10.4075 13.7437 10.6411L13.1507 12.7612C13.0609 13.0667 13.0251 13.3723 13.0251 13.6596C13.0251 14.6661 13.6179 15.4022 14.8576 15.4022C15.9177 15.4022 16.7621 14.7198 17.2293 13.0847L16.4388 12.7796C16.0435 13.875 15.7021 14.073 15.4325 14.073C15.163 14.073 15.0193 13.8935 15.0193 13.5343C15.0193 13.3726 15.0554 13.1932 15.1091 12.9771L15.6842 10.9116C15.8279 10.4266 15.8818 9.99652 15.8818 9.60136C15.8818 8.0562 14.9475 7.24979 13.8156 7.24979C12.7556 7.24979 11.6775 8.20597 11.1386 9.2123L11.5337 7.40604H8.46152L8.03027 8.99698H9.4677L8.58254 12.5407C7.88746 14.0859 6.61066 14.111 6.45043 14.0751C6.18731 14.0157 6.01902 13.9158 6.01902 13.5739C6.01902 13.3767 6.05496 13.0933 6.1448 12.7517L7.49246 7.40604H4.07871L3.64746 8.99698H5.06676L4.15059 12.7403" fill="white"/>
</g>
<defs>
<clipPath id="clip0_580_3885">
<rect width="20" height="20" fill="white"/>
</clipPath>
</defs>
</svg>
