<svg width="20" height="21" viewBox="0 0 20 21" fill="none" xmlns="http://www.w3.org/2000/svg">
<g clip-path="url(#clip0_580_3903)">
<path d="M19.7596 9.91977L10.8968 0.990642L10.038 0.125427L3.36637 6.84705L0.315567 9.91977C0.163181 10.0741 0.0776367 10.2829 0.0776367 10.5006C0.0776367 10.7183 0.163181 10.9271 0.315567 11.0814L6.41074 17.2222L10.038 20.8757L16.7088 14.1541L16.8127 14.0504L19.7596 11.086C19.836 11.0097 19.8966 10.9188 19.938 10.8187C19.9793 10.7187 20.0006 10.6113 20.0006 10.5029C20.0006 10.3945 19.9793 10.2872 19.938 10.1871C19.8966 10.087 19.836 9.99614 19.7596 9.91977ZM10.038 13.5687L6.99276 10.5006L10.038 7.43251L13.0824 10.5006L10.038 13.5687Z" fill="#2684FF"/>
<path d="M10.0375 7.4327C9.07978 6.46801 8.53988 5.16068 8.53575 3.79625C8.53161 2.43183 9.06358 1.1212 10.0155 0.150635L3.35205 6.86114L6.97844 10.5147L10.0375 7.4327Z" fill="url(#paint0_linear_580_3903)"/>
<path d="M13.0902 10.4924L10.0376 13.5689C10.999 14.5377 11.539 15.8515 11.539 17.2215C11.539 18.5914 10.999 19.9053 10.0376 20.8741L16.7194 14.146L13.0902 10.4924Z" fill="url(#paint1_linear_580_3903)"/>
</g>
<defs>
<linearGradient id="paint0_linear_580_3903" x1="9.49228" y1="4.32849" x2="5.20802" y2="8.58" gradientUnits="userSpaceOnUse">
<stop offset="0.18" stop-color="#0052CC"/>
<stop offset="1" stop-color="#2684FF"/>
</linearGradient>
<linearGradient id="paint1_linear_580_3903" x1="776.104" y1="900.926" x2="1212.24" y2="1181.57" gradientUnits="userSpaceOnUse">
<stop offset="0.18" stop-color="#0052CC"/>
<stop offset="1" stop-color="#2684FF"/>
</linearGradient>
<clipPath id="clip0_580_3903">
<rect width="20" height="21" fill="white"/>
</clipPath>
</defs>
</svg>
