<svg width="20" height="21" viewBox="0 0 20 21" fill="none" xmlns="http://www.w3.org/2000/svg">
<g clip-path="url(#clip0_580_3963)">
<path fill-rule="evenodd" clip-rule="evenodd" d="M7.33241 0C6.22684 0.000835882 5.33209 0.918634 5.3329 2.04958C5.33209 3.18053 6.22766 4.09833 7.33323 4.09916H9.33356V2.05042C9.33437 0.91947 8.4388 0.00167176 7.33241 0C7.33323 0 7.33323 0 7.33241 0V0ZM7.33241 5.46667H1.99984C0.894268 5.4675 -0.00130318 6.3853 -0.000486048 7.51625C-0.0021203 8.6472 0.893451 9.56499 1.99902 9.56667H7.33241C8.43799 9.56583 9.33356 8.64803 9.33274 7.51708C9.33356 6.3853 8.43799 5.4675 7.33241 5.46667Z" fill="#36C5F0"/>
<path fill-rule="evenodd" clip-rule="evenodd" d="M19.9998 7.51704C20.0006 6.38609 19.105 5.4683 17.9994 5.46746C16.8938 5.4683 15.9983 6.38609 15.9991 7.51704V9.56746H17.9994C19.105 9.56662 20.0006 8.64883 19.9998 7.51704ZM14.6664 7.51704V2.05038C14.6672 0.920263 13.7724 0.00246522 12.6668 0.000793457C11.5613 0.00162934 10.6657 0.919427 10.6665 2.05038V7.51704C10.6649 8.64799 11.5604 9.56579 12.666 9.56746C13.7716 9.56662 14.6672 8.64883 14.6664 7.51704Z" fill="#2EB67D"/>
<path fill-rule="evenodd" clip-rule="evenodd" d="M12.6659 20.5008C13.7714 20.5 14.667 19.5822 14.6662 18.4512C14.667 17.3203 13.7714 16.4025 12.6659 16.4016H10.6655V18.4512C10.6647 19.5813 11.5603 20.4991 12.6659 20.5008ZM12.6659 15.0333H17.9992C19.1048 15.0325 20.0004 14.1147 19.9996 12.9837C20.0012 11.8528 19.1056 10.935 18.0001 10.9333H12.6667C11.5611 10.9341 10.6655 11.8519 10.6663 12.9829C10.6655 14.1147 11.5603 15.0325 12.6659 15.0333Z" fill="#ECB22E"/>
<path fill-rule="evenodd" clip-rule="evenodd" d="M5.58721e-07 12.9837C-0.000816568 14.1146 0.894755 15.0324 2.00033 15.0333C3.1059 15.0324 4.00147 14.1146 4.00065 12.9837V10.9341H2.00033C0.894755 10.9349 -0.000816568 11.8527 5.58721e-07 12.9837ZM5.33339 12.9837V18.4503C5.33175 19.5813 6.22733 20.4991 7.3329 20.5008C8.43847 20.4999 9.33404 19.5821 9.33323 18.4512V12.9853C9.33486 11.8544 8.43929 10.9366 7.33371 10.9349C6.22732 10.9349 5.33257 11.8527 5.33339 12.9837C5.33339 12.9845 5.33339 12.9837 5.33339 12.9837Z" fill="#E01E5A"/>
</g>
<defs>
<clipPath id="clip0_580_3963">
<rect width="20" height="20.5" fill="white"/>
</clipPath>
</defs>
</svg>
