<svg width="20" height="20" viewBox="0 0 20 20" fill="none" xmlns="http://www.w3.org/2000/svg">
<g clip-path="url(#clip0_580_3938)">
<path d="M10 0C4.47697 0 0 4.47697 0 10C0 15.523 4.47697 20 10 20C15.523 20 20 15.523 20 10C20 4.47765 15.523 0.000682361 10 0ZM14.5861 14.4224C14.4067 14.7172 14.0225 14.8093 13.7291 14.6298C11.3811 13.1948 8.42511 12.8707 4.94439 13.6656C4.60867 13.7427 4.27431 13.5326 4.19788 13.1969C4.12078 12.8611 4.33026 12.5268 4.66667 12.4504C8.47561 11.5803 11.7434 11.955 14.3794 13.5653C14.6728 13.7462 14.7663 14.129 14.5861 14.4224ZM15.8096 11.7004C15.5838 12.0676 15.1034 12.1822 14.7369 11.957C12.0498 10.305 7.95155 9.82668 4.77243 10.7915C4.36029 10.9164 3.92494 10.6837 3.79939 10.2723C3.6752 9.86012 3.90788 9.42545 4.31934 9.2999C7.95087 8.19788 12.4661 8.73149 15.5524 10.6285C15.9195 10.8543 16.0355 11.334 15.8096 11.7004ZM15.9147 8.86455C12.6912 6.95053 7.37427 6.77448 4.29683 7.70795C3.8028 7.85807 3.28011 7.57898 3.13067 7.08495C2.98124 6.59092 3.25964 6.06824 3.75435 5.91812C7.28693 4.84613 13.1586 5.05288 16.8693 7.25554C17.3135 7.51962 17.4596 8.09348 17.1962 8.53702C16.9335 8.98192 16.3582 9.12862 15.9147 8.86455Z" fill="#2EBD59"/>
</g>
<defs>
<clipPath id="clip0_580_3938">
<rect width="20" height="20" fill="white"/>
</clipPath>
</defs>
</svg>
