<svg width="20" height="20" viewBox="0 0 20 20" fill="none" xmlns="http://www.w3.org/2000/svg">
<g clip-path="url(#clip0_580_4010)">
<path d="M3.54167 0H16.4583C18.4167 0 20 1.58333 20 3.54167V15.9583C20 17.9167 18.4167 19.5 16.4583 19.5H3.54167C1.58333 19.5 0 17.9167 0 15.9583V3.54167C0 1.58333 1.58333 0 3.54167 0Z" fill="#470137"/>
<path d="M10.5168 5.125L8.01684 9.25L10.6835 13.625C10.7002 13.6583 10.7085 13.6917 10.7002 13.725C10.6918 13.7583 10.6585 13.7333 10.6085 13.7417H8.70018C8.56684 13.7417 8.47518 13.7333 8.41684 13.65C8.24184 13.3 8.05851 12.9583 7.88351 12.6083C7.70851 12.2667 7.51684 11.9167 7.31684 11.5583C7.11684 11.2 6.91684 10.8417 6.71684 10.475H6.70018C6.52518 10.8333 6.33351 11.1917 6.14184 11.55C5.95018 11.9083 5.75851 12.2667 5.57518 12.6167C5.38351 12.9667 5.19184 13.325 5.00018 13.6667C4.96684 13.75 4.90018 13.7583 4.80851 13.7583H2.97518C2.94184 13.7583 2.91684 13.775 2.91684 13.7333C2.90851 13.7 2.91684 13.6667 2.93351 13.6417L5.52518 9.39167L3.00018 5.11667C2.97518 5.08333 2.96684 5.05 2.98351 5.03333C3.00018 5.00833 3.03351 5 3.06684 5H4.95851C5.00018 5 5.04184 5.00833 5.07518 5.01667C5.10851 5.03333 5.13351 5.05833 5.15851 5.09167C5.31684 5.45 5.50018 5.80833 5.69184 6.16667C5.89184 6.525 6.08351 6.875 6.29184 7.225C6.49184 7.575 6.67518 7.925 6.85018 8.28333H6.86684C7.04184 7.91667 7.22518 7.55833 7.40851 7.20833C7.59184 6.85833 7.78351 6.50833 7.97518 6.15833C8.16684 5.80833 8.35018 5.45 8.53351 5.10833C8.54184 5.075 8.55851 5.04167 8.58351 5.025C8.61684 5.00833 8.65018 5 8.69184 5.00833H10.4502C10.4918 5 10.5335 5.025 10.5418 5.06667C10.5502 5.075 10.5335 5.10833 10.5168 5.125Z" fill="#FF61F6"/>
<path d="M14.367 13.9167C13.7504 13.925 13.1337 13.8 12.5754 13.5417C12.0504 13.3 11.617 12.9 11.317 12.4083C11.0087 11.9 10.8587 11.2667 10.8587 10.5083C10.8504 9.89167 11.0087 9.28334 11.317 8.75001C11.6337 8.20834 12.092 7.75834 12.642 7.45834C13.2254 7.13334 13.9254 6.97501 14.7504 6.97501C14.792 6.97501 14.8504 6.97501 14.9254 6.98334C15.0004 6.99167 15.0837 6.99167 15.1837 7.00001V4.36667C15.1837 4.30834 15.2087 4.27501 15.267 4.27501H16.9587C17.0004 4.26667 17.0337 4.30001 17.042 4.33334C17.042 4.34167 17.042 4.35001 17.042 4.35001V12.2833C17.042 12.4333 17.0504 12.6 17.0587 12.7833C17.0754 12.9583 17.0837 13.125 17.092 13.2667C17.092 13.325 17.067 13.375 17.0087 13.4C16.5754 13.5833 16.117 13.7167 15.6504 13.8C15.2254 13.875 14.8004 13.9167 14.367 13.9167ZM15.1837 12.25V8.58334C15.1087 8.56667 15.0337 8.55001 14.9587 8.54167C14.867 8.53334 14.7754 8.52501 14.6837 8.52501C14.3587 8.52501 14.0337 8.59167 13.742 8.74167C13.4587 8.88334 13.217 9.09167 13.0337 9.35834C12.8504 9.62501 12.7587 9.98334 12.7587 10.4167C12.7504 10.7083 12.8004 11 12.9004 11.275C12.9837 11.5 13.1087 11.7 13.2754 11.8667C13.4337 12.0167 13.6254 12.1333 13.842 12.2C14.067 12.275 14.3004 12.3083 14.5337 12.3083C14.6587 12.3083 14.7754 12.3 14.8837 12.2917C14.992 12.3 15.0837 12.2833 15.1837 12.25Z" fill="#FF61F6"/>
</g>
<defs>
<clipPath id="clip0_580_4010">
<rect width="20" height="19.5" fill="white"/>
</clipPath>
</defs>
</svg>
